# xmcd
#
# Track frame offsets: 
#        150
#        5807
#        27107
#        53162
#        72825
#        90855
#        92752
#        115295
#        135695
#        159762
#        162535
#        179242
#        186017
#        206425
#        229662
#        249930
#        279475
#        297775
#        310435
#
# Disc length: 4201 seconds
#
# Revision: 3
# Processed by: cddbd v1.5.2PL0 Copyright (c) Steve Scherf et al.
# Submitted via: ExactAudioCopy v1.0b3
#
DISCID=04106713
DTITLE=Full Force - Don't Sleep
DYEAR=1992
DGENRE=Soul
TTITLE0=Intro-Lude (Hudlin' Brothers "No Snooze" Intro)
TTITLE1=Don't Sleep
TTITLE2=Nice 'N' Sleazy
TTITLE3=Quickie
TTITLE4=If It's Cool Witcha Baby
TTITLE5=Interlude (Quiet Storm)
TTITLE6=Your Place or Mine
TTITLE7=Physical Commitment
TTITLE8=Wait Till I Get Home
TTITLE9=Interlude (2 Points!)
TTITLE10=Go Wit the Flo
TTITLE11=Interlude (The Byrd Factor)
TTITLE12=After All This Time (Ain't It Great to be Black)
TTITLE13=Girl
TTITLE14=Sharon
TTITLE15=Makin Love on the Dance Floor
TTITLE16=My Love Is Free
TTITLE17=Interlude (900-Force Line)
TTITLE18=God Will Fix It
EXTD=
EXTT0=
EXTT1=
EXTT2=
EXTT3=
EXTT4=
EXTT5=
EXTT6=
EXTT7=
EXTT8=
EXTT9=
EXTT10=
EXTT11=
EXTT12=
EXTT13=
EXTT14=
EXTT15=
EXTT16=
EXTT17=
EXTT18=
PLAYORDER=
